<mxfile host="app.diagrams.net" modified="2022-02-28T08:43:20.011Z" agent="5.0 (Windows NT 10.0; Win64; x64) AppleWebKit/537.36 (KHTML, like Gecko) Chrome/98.0.4758.102 Safari/537.36" etag="Eq4m3QrMi5fPzZUr6-VC" version="16.6.4" type="github">
  <diagram id="HF-8SYFIDRuu70m_HSBS" name="Page-1">
    <mxGraphModel dx="782" dy="482" grid="0" gridSize="10" guides="1" tooltips="1" connect="1" arrows="1" fold="1" page="1" pageScale="1" pageWidth="827" pageHeight="1169" math="0" shadow="0">
      <root>
        <mxCell id="0" />
        <mxCell id="1" parent="0" />
        <mxCell id="kcFeJKtu7dGenJxTlEV0-1" value="Linux&lt;br&gt;Kernel" style="shape=cylinder3;whiteSpace=wrap;html=1;boundedLbl=1;backgroundOutline=1;size=15;fillColor=#f8cecc;strokeColor=#b85450;rounded=1;sketch=1;" parent="1" vertex="1">
          <mxGeometry x="230" y="330" width="60" height="80" as="geometry" />
        </mxCell>
        <mxCell id="kcFeJKtu7dGenJxTlEV0-2" value="用户层(test app)" style="ellipse;shape=cloud;whiteSpace=wrap;html=1;fillColor=#dae8fc;strokeColor=#6c8ebf;rounded=1;sketch=1;" parent="1" vertex="1">
          <mxGeometry x="70" y="280" width="120" height="80" as="geometry" />
        </mxCell>
        <mxCell id="kcFeJKtu7dGenJxTlEV0-3" value="" style="shape=flexArrow;endArrow=classic;html=1;rounded=1;curved=1;sketch=1;" parent="1" edge="1">
          <mxGeometry width="50" height="50" relative="1" as="geometry">
            <mxPoint x="110" y="369.5" as="sourcePoint" />
            <mxPoint x="220" y="369.5" as="targetPoint" />
          </mxGeometry>
        </mxCell>
        <mxCell id="kcFeJKtu7dGenJxTlEV0-4" value="read" style="text;html=1;strokeColor=none;fillColor=none;align=center;verticalAlign=middle;whiteSpace=wrap;rounded=1;sketch=1;" parent="1" vertex="1">
          <mxGeometry x="120" y="380" width="60" height="30" as="geometry" />
        </mxCell>
        <mxCell id="kcFeJKtu7dGenJxTlEV0-5" value="" style="shape=flexArrow;endArrow=classic;html=1;rounded=1;curved=1;sketch=1;" parent="1" edge="1">
          <mxGeometry width="50" height="50" relative="1" as="geometry">
            <mxPoint x="300" y="369.5" as="sourcePoint" />
            <mxPoint x="390" y="370" as="targetPoint" />
          </mxGeometry>
        </mxCell>
        <mxCell id="kcFeJKtu7dGenJxTlEV0-6" value="查找设备号" style="text;html=1;strokeColor=none;fillColor=none;align=center;verticalAlign=middle;whiteSpace=wrap;rounded=1;sketch=1;" parent="1" vertex="1">
          <mxGeometry x="300" y="380" width="70" height="30" as="geometry" />
        </mxCell>
        <mxCell id="kcFeJKtu7dGenJxTlEV0-9" value="" style="endArrow=classic;html=1;rounded=1;curved=1;sketch=1;" parent="1" edge="1">
          <mxGeometry width="50" height="50" relative="1" as="geometry">
            <mxPoint x="259.5" y="410" as="sourcePoint" />
            <mxPoint x="260" y="470" as="targetPoint" />
          </mxGeometry>
        </mxCell>
        <mxCell id="kcFeJKtu7dGenJxTlEV0-10" value="dmesg" style="text;html=1;strokeColor=none;fillColor=none;align=center;verticalAlign=middle;whiteSpace=wrap;rounded=1;sketch=1;" parent="1" vertex="1">
          <mxGeometry x="200" y="420" width="60" height="30" as="geometry" />
        </mxCell>
        <mxCell id="kcFeJKtu7dGenJxTlEV0-11" value="&lt;span&gt;Kernel log&lt;/span&gt;" style="shape=note;whiteSpace=wrap;html=1;backgroundOutline=1;darkOpacity=0.05;rounded=1;sketch=1;" parent="1" vertex="1">
          <mxGeometry x="230" y="470" width="70" height="80" as="geometry" />
        </mxCell>
        <mxCell id="kcFeJKtu7dGenJxTlEV0-17" value="&lt;b&gt;&lt;font style=&quot;font-size: 16px&quot;&gt;Driver&lt;/font&gt;&lt;/b&gt;" style="whiteSpace=wrap;html=1;aspect=fixed;fillColor=#fff2cc;strokeColor=#d6b656;rounded=1;sketch=1;" parent="1" vertex="1">
          <mxGeometry x="390" y="315" width="110" height="110" as="geometry" />
        </mxCell>
        <mxCell id="0nUj5qPjS4YKKaQaJtHM-1" value="" style="curved=1;endArrow=classic;html=1;rounded=1;fontSize=12;exitX=0.168;exitY=-0.023;exitDx=0;exitDy=0;exitPerimeter=0;" edge="1" parent="1" source="kcFeJKtu7dGenJxTlEV0-17">
          <mxGeometry width="50" height="50" relative="1" as="geometry">
            <mxPoint x="230" y="288" as="sourcePoint" />
            <mxPoint x="164" y="277" as="targetPoint" />
            <Array as="points">
              <mxPoint x="338" y="277" />
              <mxPoint x="294" y="263" />
              <mxPoint x="247" y="263" />
              <mxPoint x="228" y="263" />
            </Array>
          </mxGeometry>
        </mxCell>
        <mxCell id="0nUj5qPjS4YKKaQaJtHM-2" value="实际读写字节数" style="text;html=1;strokeColor=none;fillColor=none;align=center;verticalAlign=middle;whiteSpace=wrap;rounded=0;fontSize=12;" vertex="1" parent="1">
          <mxGeometry x="237" y="268" width="97" height="30" as="geometry" />
        </mxCell>
        <mxCell id="0nUj5qPjS4YKKaQaJtHM-3" value="错误信息&lt;br&gt;调试信息" style="text;html=1;strokeColor=none;fillColor=none;align=center;verticalAlign=middle;whiteSpace=wrap;rounded=0;fontSize=12;" vertex="1" parent="1">
          <mxGeometry x="305" y="508" width="60" height="30" as="geometry" />
        </mxCell>
      </root>
    </mxGraphModel>
  </diagram>
</mxfile>
